<?xml version="1.0" encoding="utf-8"?><svg viewBox="0 0 170 22" xmlns="http://www.w3.org/2000/svg" xmlns:xlink="http://www.w3.org/1999/xlink"><style>:root>svg{display:none}:root>svg:target{display:block}</style><svg fill="none" viewBox="0 0 10 18" id="arrow-down" xmlns="http://www.w3.org/2000/svg"><path d="m5 17-4-4.129M5 17l4-4.129M5 17V1" stroke="#FDFDFD" stroke-width="2" stroke-linecap="round" stroke-linejoin="round"/></svg><svg viewBox="0 0 22 22" id="facebook" xmlns="http://www.w3.org/2000/svg"><path fill-rule="evenodd" clip-rule="evenodd" d="M11 22c6.075 0 11-4.925 11-11S17.075 0 11 0 0 4.925 0 11c0 5.422 3.922 9.927 9.084 10.834v.036A11.36 11.36 0 0 0 11 22zm-.096 0a11.34 11.34 0 0 0 1.624-.13v-7.506h2.569l.488-3.105h-3.057V9.245c0-.85.427-1.678 1.796-1.678h1.39V4.924s-1.261-.21-2.467-.21c-2.518 0-4.163 1.488-4.163 4.18v2.365H6.286v3.105h2.798v7.47c.592.104 1.2.16 1.82.166z"/></svg><svg viewBox="0 0 22 22" id="instagram" xmlns="http://www.w3.org/2000/svg"><path fill-rule="evenodd" clip-rule="evenodd" d="M.632 3.168C0 4.41 0 6.034 0 9.284v3.432c0 3.25 0 4.875.632 6.116a5.802 5.802 0 0 0 2.536 2.536C4.41 22 6.034 22 9.284 22h3.432c3.25 0 4.875 0 6.116-.632a5.802 5.802 0 0 0 2.536-2.536C22 17.59 22 15.966 22 12.716V9.284c0-3.25 0-4.875-.632-6.116A5.802 5.802 0 0 0 18.832.632C17.59 0 15.966 0 12.716 0H9.284c-3.25 0-4.875 0-6.116.632A5.802 5.802 0 0 0 .632 3.168zM11 14.928a3.929 3.929 0 1 0 0-7.857 3.929 3.929 0 0 0 0 7.858zM13.357 11a2.357 2.357 0 1 1-4.714 0 2.357 2.357 0 0 1 4.714 0zm-9.7-5.283c-.514 1.008-.514 2.328-.514 4.969v.628c0 2.64 0 3.96.514 4.97a4.715 4.715 0 0 0 2.06 2.06c1.008.513 2.328.513 4.969.513h.628c2.64 0 3.96 0 4.97-.514a4.715 4.715 0 0 0 2.06-2.06c.513-1.008.513-2.329.513-4.969v-.628c0-2.64 0-3.96-.514-4.97a4.715 4.715 0 0 0-2.06-2.06c-1.008-.513-2.329-.513-4.969-.513h-.628c-2.64 0-3.96 0-4.97.514a4.714 4.714 0 0 0-2.06 2.06zm7.029-1.003h.628c1.346 0 2.261.002 2.969.06.689.056 1.04.158 1.287.283a3.143 3.143 0 0 1 1.373 1.373c.125.246.227.598.284 1.287.058.708.059 1.623.059 2.969v.628c0 1.346-.002 2.261-.06 2.969-.056.689-.158 1.04-.283 1.287a3.143 3.143 0 0 1-1.373 1.373c-.246.125-.598.227-1.287.284-.708.058-1.623.059-2.969.059h-.628c-1.346 0-2.261-.002-2.969-.06-.689-.056-1.04-.158-1.287-.283a3.143 3.143 0 0 1-1.373-1.373c-.125-.246-.227-.598-.284-1.287-.057-.708-.059-1.623-.059-2.969v-.628c0-1.346.002-2.261.06-2.969.056-.689.158-1.04.283-1.287A3.143 3.143 0 0 1 6.43 5.057c.246-.125.598-.227 1.287-.284.708-.057 1.623-.059 2.969-.059zM16.5 6.68a1.179 1.179 0 1 1-2.357 0 1.179 1.179 0 0 1 2.357 0z"/></svg><svg aria-hidden="true" style="width:0;height:0;position:absolute" viewBox="0 0 NaN NaN" id="instagran-gradient"/><svg viewBox="0 0 170 22" id="logo" xmlns="http://www.w3.org/2000/svg"><path d="M43.55 12.373v5.832h9.567v3.394H40V0h12.963v3.394h-9.414V9.01h8.642v3.363H43.55zm24.236 1.45h-11.42v-3.209h11.42v3.21zM88.982 0h3.797v21.599h-3.55V6.202l-6.574 10.861h-.432L75.65 6.171V21.6H72.1V0h3.828l6.512 10.8L88.982 0zm22.796 15.304H99.494c.247 1.152.802 2.047 1.666 2.685.885.637 1.976.956 3.272.956 1.749 0 3.076-.637 3.981-1.913l2.747 1.605c-1.502 2.242-3.755 3.363-6.759 3.363-2.49 0-4.516-.761-6.08-2.283-1.543-1.543-2.315-3.487-2.315-5.832 0-2.283.761-4.207 2.284-5.77 1.502-1.563 3.457-2.345 5.864-2.345 2.243 0 4.095.792 5.556 2.376 1.461 1.584 2.191 3.507 2.191 5.77 0 .411-.041.874-.123 1.388zM99.463 12.59h9.074c-.227-1.214-.741-2.15-1.543-2.808-.782-.658-1.739-.987-2.871-.987-1.234 0-2.263.34-3.086 1.018-.823.679-1.348 1.604-1.574 2.777zm23.488-6.82c1.79 0 3.22.576 4.29 1.728 1.091 1.131 1.636 2.674 1.636 4.628V21.6h-3.333v-9.133c0-1.152-.309-2.037-.926-2.654s-1.461-.926-2.531-.926c-1.214 0-2.171.381-2.87 1.142-.7.74-1.05 1.841-1.05 3.302V21.6h-3.333V6.17h3.333v1.975c1.029-1.584 2.624-2.376 4.784-2.376zm18.126.401v3.21h-3.827v7.404c0 .638.144 1.1.432 1.389.288.267.71.422 1.266.463.576.02 1.286.01 2.129-.031v2.993c-2.551.308-4.382.092-5.493-.648-1.112-.761-1.667-2.15-1.667-4.166V9.38h-2.84V6.171h2.84V2.84l3.333-.988v4.32h3.827zm15.446 13.484c-1.564 1.563-3.488 2.345-5.772 2.345-2.283 0-4.207-.782-5.771-2.345-1.584-1.584-2.377-3.507-2.377-5.77 0-2.263.793-4.186 2.377-5.77 1.564-1.563 3.488-2.345 5.771-2.345 2.284 0 4.208.782 5.772 2.345 1.584 1.584 2.377 3.507 2.377 5.77 0 2.263-.793 4.186-2.377 5.77zm-10.586-5.77c0 1.399.463 2.561 1.389 3.487.926.925 2.067 1.388 3.425 1.388 1.359 0 2.5-.463 3.426-1.388.926-.926 1.389-2.088 1.389-3.487s-.463-2.561-1.389-3.487c-.926-.925-2.067-1.388-3.426-1.388-1.358 0-2.499.463-3.425 1.388-.926.926-1.389 2.088-1.389 3.487zm19.31-7.714v2.592c.844-1.913 2.428-2.87 4.753-2.87v3.61c-1.255-.082-2.366.227-3.333.926-.947.679-1.42 1.81-1.42 3.394V21.6h-3.333V6.17h3.333z"/><path d="M0 9.263C0 4.147 4.179 0 9.333 0H28v1.158c0 5.116-4.179 9.263-9.333 9.263H0V9.263zm0 9.263c0-3.197 2.612-5.79 5.833-5.79H7c2.577 0 4.667 2.074 4.667 4.632S9.577 22 7 22H0v-3.474zm16.333 0c0-3.197 2.612-5.79 5.834-5.79h1.166c2.578 0 4.667 2.074 4.667 4.632S25.91 22 23.333 22h-7v-3.474z" fill="#FA9F42"/></svg><svg viewBox="0 0 22 22" id="vk" xmlns="http://www.w3.org/2000/svg"><path fill-rule="evenodd" clip-rule="evenodd" d="M9.284 0h3.432c3.25 0 4.875 0 6.116.632a5.802 5.802 0 0 1 2.536 2.536C22 4.41 22 6.034 22 9.284v3.432c0 3.25 0 4.875-.632 6.116a5.802 5.802 0 0 1-2.536 2.536C17.59 22 15.966 22 12.716 22H9.284c-3.25 0-4.875 0-6.116-.632a5.802 5.802 0 0 1-2.536-2.536C0 17.59 0 15.966 0 12.716V9.284c0-3.25 0-4.875.632-6.116A5.802 5.802 0 0 1 3.168.632C4.41 0 6.034 0 9.284 0zm7.041 12.136c-.092.236-.055.468.115.698.216.242.454.489.696.738.714.737 1.451 1.497 1.68 2.242.08.464-.303.637-.692.637l-2.093.035a.874.874 0 0 1-.458-.043c-.603-.199-.997-.675-1.395-1.155-.255-.308-.51-.617-.825-.856-.156-.12-.345-.2-.527-.104-.412.216-.422.632-.433 1.053-.008.319-.016.64-.197.88-.24.266-.703.232-1.082.205a4.26 4.26 0 0 0-.292-.015c-3.916.14-6.47-5.474-7.637-8.371-.14-.391.08-.586.474-.586l2.24-.017c.24.042.468.184.557.43.335.821 1.557 3.782 2.314 3.782.757 0 .568-3.017.31-3.583-.136-.195-.367-.319-.694-.37-.071-.012-.058-.08.04-.207.344-.442 2.448-.573 3.37-.353.182.048.36.134.441.323.184.432.142 1.16.1 1.895-.054.913-.108 1.84.268 2.235.145.037.224.042.351-.06.968-.976 1.628-2.494 2.168-3.738a.46.46 0 0 1 .351-.315l.953.003c.697.003 1.438.006 2.089-.003 1.008 0-.45 2.067-1.433 3.46-.383.543-.694.984-.759 1.16z"/></svg></svg>